<?xml version="1.0" encoding="UTF-8" standalone="no"?>
<!-- Created with Inkscape (http://www.inkscape.org/) -->

<svg
   version="1.1"
   id="svg1"
   width="360"
   height="360"
   viewBox="0 0 360 360"
   sodipodi:docname="unnamed.svg"
   inkscape:version="1.4 (86a8ad7, 2024-10-11)"
   xmlns:inkscape="http://www.inkscape.org/namespaces/inkscape"
   xmlns:sodipodi="http://sodipodi.sourceforge.net/DTD/sodipodi-0.dtd"
   xmlns="http://www.w3.org/2000/svg"
   xmlns:svg="http://www.w3.org/2000/svg">
  <defs
     id="defs1" />
  <sodipodi:namedview
     id="namedview1"
     pagecolor="#ffffff"
     bordercolor="#000000"
     borderopacity="0.25"
     inkscape:showpageshadow="2"
     inkscape:pageopacity="0.0"
     inkscape:pagecheckerboard="0"
     inkscape:deskcolor="#d1d1d1"
     inkscape:zoom="4.2944444"
     inkscape:cx="174.8771"
     inkscape:cy="190.12937"
     inkscape:window-width="1920"
     inkscape:window-height="991"
     inkscape:window-x="-9"
     inkscape:window-y="-9"
     inkscape:window-maximized="1"
     inkscape:current-layer="svg1" />
  <g
     inkscape:groupmode="layer"
     inkscape:label="Image"
     id="g1">
    <path
       id="path1"
       style="fill:#FFFFFF"
       d="M 273.8418 81.5 L 192.3418 108.51172 L 192.3418 178.36914 L 203.98438 187.68359 L 203.98438 116.89453 L 284.55273 89.882812 L 273.8418 81.5 z M 121.55273 84.759766 L 33.998047 113.63477 L 45.640625 122.01758 L 132.73047 92.677734 L 121.55273 84.759766 z M 288.74609 94.074219 L 207.71094 121.08594 L 206.7793 189.54688 L 217.49023 198.39648 L 216.55859 129.00391 L 298.99023 101.52734 L 288.74609 94.074219 z M 136.45508 95.005859 L 48.900391 123.88086 L 59.146484 131.79883 L 147.63281 102.92383 L 136.45508 95.005859 z M 302.7168 104.78711 L 221.2168 133.19531 L 220.28516 201.18945 L 231.92773 210.9707 L 303.64844 187.21875 L 303.64844 239.8457 L 222.14844 267.08984 L 231.92773 274.54102 L 313.42773 248.22852 L 313.89453 183.95898 L 304.11328 174.64453 L 230.53125 198.39648 L 230.53125 141.11328 L 313.89453 112.70312 L 302.7168 104.78711 z M 151.82422 105.25195 L 64.269531 134.12695 L 74.980469 142.97461 L 107.11523 132.73047 L 107.58008 257.54297 L 63.802734 272.91016 L 74.515625 279.89648 L 162.07031 250.08984 L 150.42773 242.63867 L 118.29297 253.34961 L 117.36133 128.53906 L 163.4668 113.63477 L 151.82422 105.25195 z M 103.08789 137.85156 L 92.212891 141.57812 L 93.144531 246.36523 L 48.900391 261.26758 L 59.146484 269.65039 L 103.38867 254.74805 L 103.08789 137.85156 z M 88.980469 143.00391 L 76.84375 146.70117 L 77.775391 236.11914 L 33.998047 250.55664 L 44.708984 258.47266 L 88.951172 244.03711 L 88.980469 143.00391 z M 275.00586 152.05664 L 234.48828 166.0293 L 234.48828 176.97266 L 284.55273 160.67188 L 275.00586 152.05664 z M 288.74609 163.4668 L 235.1875 181.16406 L 235.1875 193.27344 L 298.99023 171.38477 L 288.74609 163.4668 z M 298.52539 194.20508 L 289.21094 197.46484 L 289.67578 230.06445 L 207.24414 255.67969 L 218.18945 263.5957 L 298.99023 236.11914 L 298.52539 194.20508 z M 283.62305 198.86133 L 274.30859 201.18945 L 273.8418 217.02539 L 193.9707 244.50195 L 202.82031 251.7207 L 283.62305 225.4082 L 283.62305 198.86133 z M 122.01758 221.68164 L 122.01758 233.32422 L 132.26367 229.13281 L 122.01758 221.68164 z M 135.55273 232.28516 L 122.01758 237.43555 L 122.29102 249.1875 L 147.19531 240.17383 L 135.55273 232.28516 z " />
  </g>
</svg>
